<svg version="1.1" id="Layer_1" xmlns="http://www.w3.org/2000/svg" xmlns:xlink="http://www.w3.org/1999/xlink" x="0px" y="0px"
	 width="100%" viewBox="0 0 1024 1024" enable-background="new 0 0 1024 1024" xml:space="preserve">
<path fill="#000000" opacity="1.000000" stroke="none" 
	d="
M938.000000,1025.000000 
	C625.333313,1025.000000 313.166656,1025.000000 1.000000,1025.000000 
	C1.000000,683.666687 1.000000,342.333344 1.000000,1.000000 
	C342.333344,1.000000 683.666687,1.000000 1025.000000,1.000000 
	C1025.000000,342.333344 1025.000000,683.666687 1025.000000,1025.000000 
	C996.166687,1025.000000 967.333313,1025.000000 938.000000,1025.000000 
M433.605774,544.990417 
	C433.791046,544.681580 433.976318,544.372681 434.074097,544.063354 
	C434.074097,544.063354 434.102142,544.146118 434.710052,543.819641 
	C441.212494,534.419739 441.679810,525.262634 436.058929,516.951782 
	C436.058929,516.951782 436.143250,516.946838 435.943634,516.302551 
	C434.323822,514.801025 432.704010,513.299561 431.076538,511.899384 
	C431.076538,511.899384 431.173706,511.869720 430.882690,511.324066 
	C430.317261,511.088776 429.751831,510.853485 429.141296,510.750427 
	C429.141296,510.750427 429.276276,510.714172 428.859039,510.156403 
	C426.922058,509.104980 424.985077,508.053558 423.016174,506.984070 
	C423.016174,506.984070 423.008057,507.019867 423.666443,507.022736 
	C424.532745,506.432343 425.399048,505.841949 426.145203,505.207275 
	C426.145203,505.207275 426.203461,505.321259 426.759369,505.162140 
	C427.177399,504.787872 427.595459,504.413635 428.616150,503.837738 
	C429.195648,502.971771 429.775146,502.105774 430.253479,501.139313 
	C430.253479,501.139313 430.276794,501.279938 430.856995,500.873474 
	C431.867035,497.585022 432.877106,494.296539 434.029999,490.337433 
	C433.986115,489.884644 433.942230,489.431885 434.015656,488.162445 
	C432.719208,484.384918 431.422760,480.607422 430.075867,476.936920 
	C430.075867,476.936920 430.179932,476.880615 429.995514,476.316620 
	C429.460358,475.756012 428.925232,475.195374 428.139893,474.612152 
	C428.139893,474.612152 428.382812,474.675995 428.122925,474.122955 
	C427.458679,473.668304 426.794434,473.213654 426.104614,472.864471 
	C426.104614,472.864471 426.202606,472.817780 425.857697,472.221985 
	C422.585144,471.090240 419.312561,469.958496 416.038422,468.925110 
	C416.038422,468.925110 416.134125,468.902313 415.699402,468.236603 
	C410.802246,467.861176 405.905090,467.485718 400.126984,466.965973 
	C397.748901,467.013947 395.370850,467.061920 392.201111,466.989777 
	C391.136749,467.031372 390.072357,467.072968 388.127045,466.968750 
	C385.748596,467.019409 383.370178,467.070099 380.095886,467.000183 
	C377.840637,467.000183 375.585388,467.000183 373.099152,467.000183 
	C373.099152,495.595490 373.094482,523.542908 373.136749,551.490295 
	C373.137512,551.985046 373.701477,552.478821 374.925598,553.146545 
	C387.848175,553.113586 400.812988,553.682312 413.674408,552.779053 
	C419.590607,552.363586 425.304230,549.063538 431.035278,547.032593 
	C431.035278,547.032593 431.044800,547.116089 431.564362,546.951965 
	C431.762695,546.656372 431.961029,546.360840 432.053986,546.055908 
	C432.053986,546.055908 432.067810,546.160828 432.582733,545.968201 
	C432.787170,545.675293 432.991608,545.382385 433.075745,545.076111 
	C433.075745,545.076111 433.094238,545.195740 433.605774,544.990417 
M286.990295,559.977600 
	C286.990295,559.977600 286.883484,559.886597 286.363586,560.203918 
	C286.170959,560.774048 285.978333,561.344116 285.219910,562.292297 
	C283.161011,566.026245 280.985504,569.703369 279.117615,573.530518 
	C278.589355,574.612854 278.435913,576.440552 279.000458,577.406128 
	C284.220734,586.335876 289.636139,595.151550 295.034393,604.530579 
	C295.306824,604.738831 295.579224,604.947144 295.988617,605.002869 
	C295.988617,605.002869 295.838013,605.142212 296.109680,605.887390 
	C296.536621,606.112061 296.963104,606.531982 297.390533,606.532898 
	C307.887177,606.555664 318.384827,606.593018 328.879578,606.441101 
	C330.114105,606.423279 331.332977,605.321777 332.687134,604.564880 
	C332.687134,604.564880 332.788239,604.388672 333.140381,603.995239 
	C333.447449,603.365845 333.754517,602.736389 334.615051,601.698547 
	C339.298828,593.743958 344.085144,585.846313 348.567810,577.779968 
	C349.335388,576.398682 349.502228,573.899414 348.757080,572.597168 
	C345.491699,566.890137 341.788910,561.433411 338.068054,555.208008 
	C336.431580,552.750122 334.795074,550.292236 333.059601,547.955688 
	C333.059601,547.955688 333.194824,547.876770 333.018585,547.137512 
	C331.344177,546.178284 329.691711,544.437134 327.991669,544.389343 
	C318.411743,544.120117 308.818817,544.352966 299.233795,544.199280 
	C296.330292,544.152710 294.429657,544.899597 293.950867,547.965881 
	C293.950867,547.965881 293.850494,547.849121 293.284210,548.144470 
	C292.682465,549.250977 292.080688,550.357483 291.425354,551.589172 
	C291.425354,551.589172 291.351624,551.703613 290.978485,552.161560 
	C290.572754,553.055298 290.166992,553.949097 289.929993,554.961731 
	C289.929993,554.961731 289.793671,554.806702 289.243561,555.123718 
	C288.653198,556.226135 288.062866,557.328491 287.413818,558.560425 
	C287.413818,558.560425 287.336731,558.679993 287.029419,559.019043 
	C286.918427,559.307617 286.863434,559.606445 286.990295,559.977600 
M506.372192,545.211487 
	C506.372192,545.211487 506.447937,545.412170 507.001984,545.196045 
	C507.024078,544.451965 507.046173,543.707825 506.811127,542.335815 
	C504.822937,539.924377 502.834747,537.513000 500.694427,534.917114 
	C494.814087,540.954102 487.690308,542.673950 479.740936,541.968933 
	C471.212433,541.212463 464.267303,534.346191 464.690735,526.452820 
	C465.269806,526.341980 465.848907,526.231140 467.228760,526.542725 
	C472.005066,526.400635 476.781342,526.258545 482.370209,526.428284 
	C487.061646,526.327576 491.753113,526.226868 497.172119,526.502747 
	C499.301483,526.376465 501.430817,526.250183 504.157623,526.428650 
	C505.251129,526.333130 506.344666,526.237610 508.079376,526.506897 
	C509.244324,526.386780 510.409271,526.266663 512.171753,525.807190 
	C512.077515,522.215027 511.983337,518.622925 512.003235,514.335999 
	C511.812592,513.674683 511.621918,513.013306 511.366150,511.636719 
	C510.841919,509.777344 510.317657,507.917938 509.677612,505.373383 
	C506.726135,498.339600 502.214325,492.115784 494.773102,490.349945 
	C487.876129,488.713287 480.177490,487.918671 473.310577,489.240448 
	C460.566803,491.693298 451.444550,503.482697 450.004272,516.618896 
	C448.474274,530.572937 455.197266,543.745483 467.603790,550.346436 
	C471.081879,551.429810 474.559967,552.513184 478.484589,553.841431 
	C478.651337,553.809570 478.818085,553.777710 479.639008,553.924805 
	C480.088135,553.900330 480.537231,553.875854 481.604156,554.010193 
	C482.632446,553.887024 483.660736,553.763916 485.243744,553.872253 
	C485.625977,553.779602 486.008209,553.686951 486.886475,553.836060 
	C487.229431,553.728455 487.572388,553.620850 488.671906,553.510132 
	C492.546448,552.122009 496.420959,550.733826 500.171417,549.357849 
	C500.171417,549.357849 500.266785,549.438171 500.906494,549.265808 
	C501.983826,548.540100 503.061157,547.814392 504.048248,547.048706 
	C504.048248,547.048706 504.084167,547.140686 504.655304,546.978333 
	C505.231598,546.460754 505.807922,545.943237 506.372192,545.211487 
M562.824219,553.064575 
	C565.282043,552.065552 567.739807,551.066589 570.774963,550.071472 
	C571.205444,549.784729 571.635986,549.497986 572.703064,549.057495 
	C573.456421,548.673950 574.209778,548.290344 575.620789,547.748413 
	C577.426208,546.378235 579.231628,545.008057 581.091309,543.596741 
	C578.554260,540.500854 576.267456,537.710327 573.976196,534.914429 
	C558.808655,548.340027 537.906067,541.465515 536.584290,526.913391 
	C539.544250,526.701538 542.502808,526.489746 546.042419,526.471558 
	C546.838379,526.360474 547.634338,526.249451 549.098999,526.519714 
	C550.590942,526.392456 552.082825,526.265198 554.328308,526.454773 
	C557.032349,526.341492 559.736389,526.228149 563.258850,526.512634 
	C570.467529,526.337769 577.676147,526.162903 585.262024,525.327820 
	C584.809692,520.226868 584.357361,515.125854 583.949585,509.275024 
	C579.086060,491.254395 565.292236,487.082031 549.296143,488.356720 
	C539.542175,489.134003 531.914429,495.091400 526.769287,504.642822 
	C521.338928,515.326904 521.147766,525.991394 526.900574,537.290771 
	C529.801636,540.565613 532.702759,543.840515 535.930298,547.639160 
	C536.455994,547.929871 536.981750,548.220581 537.600464,548.592102 
	C537.600464,548.592102 537.658997,548.700562 538.119202,549.144104 
	C541.711060,550.446899 545.302917,551.749695 549.333984,553.393005 
	C549.870056,553.471375 550.406067,553.549683 551.594788,553.879761 
	C552.057739,553.859680 552.520691,553.839539 553.598877,553.986694 
	C554.640930,553.889587 555.683044,553.792419 557.495850,553.871460 
	C558.501831,553.637634 559.507751,553.403870 560.882568,553.403992 
	C561.273193,553.279114 561.663818,553.154297 562.824219,553.064575 
M295.267517,478.131317 
	C294.999969,478.714020 294.732391,479.296753 294.015106,480.344330 
	C289.245667,488.485352 284.597565,496.701538 279.631500,504.720825 
	C278.177460,507.068756 278.308167,508.665222 279.677704,510.910797 
	C284.854828,519.399597 289.736877,528.068848 294.956787,536.530334 
	C295.712036,537.754578 297.693634,538.888916 299.131226,538.918335 
	C309.117065,539.123230 319.110626,539.107178 329.097351,538.923828 
	C330.395111,538.899963 332.174103,537.828674 332.872070,536.708008 
	C338.391296,527.846130 343.770172,518.893677 348.990417,509.852570 
	C349.634155,508.737671 349.657471,506.598907 349.007050,505.507355 
	C343.667603,496.545380 338.100464,487.719116 332.230896,478.035828 
	C330.738831,477.668793 329.249847,476.999512 327.754150,476.984100 
	C318.475677,476.888367 309.195435,476.903564 299.916595,476.981171 
	C298.547974,476.992584 297.183746,477.530487 296.016418,477.939240 
	C296.016418,477.939240 295.823059,477.810730 295.267517,478.131317 
M235.219254,512.260742 
	C230.101639,520.793640 224.889465,529.272705 219.963638,537.914978 
	C219.182846,539.284851 218.987869,541.783691 219.718521,543.092773 
	C224.968201,552.498596 230.526932,561.731934 236.323059,571.845093 
	C247.802094,571.960388 259.281067,572.088013 270.760406,572.140198 
	C271.165771,572.142029 271.574585,571.395508 272.203766,570.341309 
	C272.616455,570.065857 273.192566,569.886047 273.417755,569.500977 
	C278.670898,560.518188 283.919769,551.532288 289.047455,542.477783 
	C289.480408,541.713257 289.427185,540.243774 288.972260,539.471375 
	C283.375519,529.968506 277.661743,520.534485 271.128479,510.660614 
	C260.815338,510.639740 250.501724,510.566620 240.189560,510.657013 
	C238.721756,510.669861 237.260925,511.475861 235.219254,512.260742 
M329.002869,407.959930 
	C319.524567,407.958984 310.040466,408.145233 300.571289,407.850677 
	C297.458588,407.753845 295.625854,408.845276 294.235138,411.268768 
	C289.301941,419.865387 284.470856,428.521698 279.436035,437.058075 
	C278.113556,439.300293 277.902222,440.942932 279.387268,443.308441 
	C284.489990,451.436432 289.173431,459.828033 294.298798,467.940979 
	C295.226410,469.409302 297.461548,470.868011 299.133240,470.915527 
	C308.936188,471.194214 318.753723,471.166443 328.559235,470.937592 
	C330.145325,470.900574 332.333130,469.739349 333.159637,468.419525 
	C338.603027,459.726746 343.888611,450.925262 348.862457,441.957764 
	C349.735840,440.383057 349.643402,437.423737 348.724213,435.845032 
	C343.728455,427.265259 338.375244,418.891296 333.025269,410.523071 
	C332.332611,409.439667 330.946991,408.799286 329.002869,407.959930 
M176.357407,477.048859 
	C170.471786,486.619415 164.498322,496.138550 158.819214,505.830109 
	C158.159668,506.955627 158.664093,509.303925 159.422745,510.631775 
	C164.259048,519.096558 169.274857,527.460327 174.333710,535.795288 
	C175.607269,537.893616 177.198257,539.229858 180.210251,539.133850 
	C189.681595,538.832031 199.172546,539.163757 208.646194,538.900574 
	C210.388107,538.852173 212.796158,537.608032 213.686661,536.167725 
	C219.515778,526.739929 225.012100,517.106384 230.633911,507.511383 
	C224.921051,497.954742 219.335632,488.425415 213.485153,479.061737 
	C212.761139,477.902954 210.635590,477.054871 209.144089,477.031189 
	C198.501526,476.861816 187.854996,476.943909 176.357407,477.048859 
M283.477570,484.980682 
	C285.163239,482.126556 287.091217,479.380402 288.431519,476.372375 
	C289.093170,474.887482 289.359283,472.530243 288.626709,471.232544 
	C283.655273,462.425842 278.438965,453.753418 273.100494,445.162720 
	C272.406677,444.046204 270.570190,443.033600 269.245697,443.011536 
	C259.088776,442.842102 248.925980,442.846924 238.769714,443.041901 
	C237.492905,443.066437 235.739944,444.212494 235.061157,445.348755 
	C229.791199,454.170593 224.651810,463.074127 219.698502,472.076935 
	C219.025467,473.300201 219.015823,475.554230 219.704315,476.754150 
	C224.654434,485.381134 229.765488,493.921753 235.093704,502.319580 
	C235.931305,503.639709 238.109055,504.801422 239.696609,504.840546 
	C249.351181,505.078369 259.018341,505.112854 268.670654,504.839996 
	C270.328796,504.793121 272.512939,503.320862 273.463165,501.861755 
	C276.897095,496.588867 279.908142,491.040588 283.477570,484.980682 
M629.505676,515.138550 
	C638.621460,515.138550 647.737244,515.138550 657.328674,515.138550 
	C657.328674,527.987549 657.328674,540.383423 657.328674,552.750366 
	C662.086060,552.750366 666.356445,552.750366 670.766968,552.750366 
	C670.766968,524.125244 670.766968,495.725067 670.766968,467.271698 
	C666.131104,467.271698 661.734619,467.271698 656.989258,467.271698 
	C656.989258,479.277222 656.989258,491.010254 656.989258,502.804016 
	C642.875977,502.804016 629.120667,502.804016 614.982300,502.804016 
	C614.982300,490.865753 614.982300,479.119049 614.982300,467.200745 
	C610.192200,467.200745 605.787109,467.200745 601.208984,467.200745 
	C601.208984,495.649963 601.208984,523.892090 601.208984,552.290527 
	C605.838745,552.290527 610.255737,552.290527 615.128906,552.290527 
	C615.128906,539.817322 615.128906,527.576294 615.128906,515.138306 
	C619.892944,515.138306 624.201172,515.138306 629.505676,515.138550 
M808.825073,550.848694 
	C823.705322,557.140503 836.855408,553.793518 849.041382,543.779419 
	C846.555786,540.696167 844.222412,537.801819 841.875732,534.890808 
	C834.517273,541.798523 826.205139,543.714722 816.875122,541.094482 
	C809.719238,539.084778 805.868225,534.059509 804.191528,526.568970 
	C820.637939,526.568970 836.734070,526.568970 852.998840,526.568970 
	C852.998840,522.767944 853.159607,519.292908 852.972290,515.836792 
	C851.900818,496.065948 834.215942,483.460114 815.229126,488.866699 
	C801.697510,492.719910 792.611206,503.160431 791.040405,516.660339 
	C789.419128,530.594360 795.979492,543.522888 808.825073,550.848694 
M774.090393,488.639465 
	C772.744324,489.484039 770.837646,490.020355 770.168457,491.237152 
	C768.760986,493.796661 768.019714,496.719635 766.975342,499.482178 
	C762.352051,511.711365 757.718323,523.936584 752.861877,536.761292 
	C752.366150,535.756958 752.155762,535.412354 752.018494,535.040771 
	C746.726990,520.716370 741.490540,506.371124 736.079529,492.092041 
	C735.559692,490.720245 734.047180,488.881958 732.846924,488.763336 
	C728.686462,488.352142 724.460449,488.604706 720.200195,488.604706 
	C727.647400,507.402893 734.904236,525.728577 742.167725,544.051575 
	C745.733582,553.046997 745.741394,552.896423 755.359497,553.040344 
	C758.538025,553.087891 759.955811,552.036926 761.085388,549.105347 
	C764.450928,540.370728 768.209412,531.788208 771.769226,523.127686 
	C776.484436,511.656403 781.156921,500.167603 785.866150,488.641388 
	C781.951904,488.641388 778.456970,488.641388 774.090393,488.639465 
M693.113037,508.500183 
	C693.113037,523.259033 693.113037,538.017822 693.113037,552.757385 
	C698.006714,552.757385 702.276123,552.757385 706.703491,552.757385 
	C706.703491,531.129700 706.703491,509.729889 706.703491,488.283752 
	C702.073547,488.283752 697.680054,488.283752 693.112793,488.283752 
	C693.112793,494.882294 693.112793,501.191345 693.113037,508.500183 
M698.769043,460.998535 
	C692.874695,463.021423 689.940002,467.183136 691.052307,471.941742 
	C691.984680,475.930603 696.882812,479.472351 700.769714,478.968201 
	C705.314697,478.378693 709.076660,474.197388 709.004028,469.815979 
	C708.924561,465.017822 705.224304,461.555084 698.769043,460.998535 
z"/>
<path fill="#F4AF1D" opacity="1.000000" stroke="none" 
	d="
M329.442627,407.956787 
	C330.946991,408.799286 332.332611,409.439667 333.025269,410.523071 
	C338.375244,418.891296 343.728455,427.265259 348.724213,435.845032 
	C349.643402,437.423737 349.735840,440.383057 348.862457,441.957764 
	C343.888611,450.925262 338.603027,459.726746 333.159637,468.419525 
	C332.333130,469.739349 330.145325,470.900574 328.559235,470.937592 
	C318.753723,471.166443 308.936188,471.194214 299.133240,470.915527 
	C297.461548,470.868011 295.226410,469.409302 294.298798,467.940979 
	C289.173431,459.828033 284.489990,451.436432 279.387268,443.308441 
	C277.902222,440.942932 278.113556,439.300293 279.436035,437.058075 
	C284.470856,428.521698 289.301941,419.865387 294.235138,411.268768 
	C295.625854,408.845276 297.458588,407.753845 300.571289,407.850677 
	C310.040466,408.145233 319.524567,407.958984 329.442627,407.956787 
z"/>
<path fill="#F4AF1D" opacity="1.000000" stroke="none" 
	d="
M176.783569,476.997437 
	C187.854996,476.943909 198.501526,476.861816 209.144089,477.031189 
	C210.635590,477.054871 212.761139,477.902954 213.485153,479.061737 
	C219.335632,488.425415 224.921051,497.954742 230.633911,507.511383 
	C225.012100,517.106384 219.515778,526.739929 213.686661,536.167725 
	C212.796158,537.608032 210.388107,538.852173 208.646194,538.900574 
	C199.172546,539.163757 189.681595,538.832031 180.210251,539.133850 
	C177.198257,539.229858 175.607269,537.893616 174.333710,535.795288 
	C169.274857,527.460327 164.259048,519.096558 159.422745,510.631775 
	C158.664093,509.303925 158.159668,506.955627 158.819214,505.830109 
	C164.498322,496.138550 170.471786,486.619415 176.783569,476.997437 
z"/>
<path fill="#F4AF1D" opacity="1.000000" stroke="none" 
	d="
M283.278198,485.288452 
	C279.908142,491.040588 276.897095,496.588867 273.463165,501.861755 
	C272.512939,503.320862 270.328796,504.793121 268.670654,504.839996 
	C259.018341,505.112854 249.351181,505.078369 239.696609,504.840546 
	C238.109055,504.801422 235.931305,503.639709 235.093704,502.319580 
	C229.765488,493.921753 224.654434,485.381134 219.704315,476.754150 
	C219.015823,475.554230 219.025467,473.300201 219.698502,472.076935 
	C224.651810,463.074127 229.791199,454.170593 235.061157,445.348755 
	C235.739944,444.212494 237.492905,443.066437 238.769714,443.041901 
	C248.925980,442.846924 259.088776,442.842102 269.245697,443.011536 
	C270.570190,443.033600 272.406677,444.046204 273.100494,445.162720 
	C278.438965,453.753418 283.655273,462.425842 288.626709,471.232544 
	C289.359283,472.530243 289.093170,474.887482 288.431519,476.372375 
	C287.091217,479.380402 285.163239,482.126556 283.278198,485.288452 
z"/>
<path fill="#F2AD1C" opacity="1.000000" stroke="none" 
	d="
M332.602417,478.851685 
	C338.100464,487.719116 343.667603,496.545380 349.007050,505.507355 
	C349.657471,506.598907 349.634155,508.737671 348.990417,509.852570 
	C343.770172,518.893677 338.391296,527.846130 332.872070,536.708008 
	C332.174103,537.828674 330.395111,538.899963 329.097351,538.923828 
	C319.110626,539.107178 309.117065,539.123230 299.131226,538.918335 
	C297.693634,538.888916 295.712036,537.754578 294.956787,536.530334 
	C289.736877,528.068848 284.854828,519.399597 279.677704,510.910797 
	C278.308167,508.665222 278.177460,507.068756 279.631500,504.720825 
	C284.597565,496.701538 289.245667,488.485352 294.579773,480.012207 
	C295.370636,479.056946 295.596832,478.433838 295.823059,477.810730 
	C295.823059,477.810730 296.016418,477.939240 296.397125,477.939209 
	C300.603516,477.960663 304.431274,477.909058 308.254425,478.018829 
	C316.371674,478.251923 324.486542,478.569000 332.602417,478.851685 
z"/>
<path fill="#F2AD1C" opacity="1.000000" stroke="none" 
	d="
M271.978210,511.082703 
	C277.661743,520.534485 283.375519,529.968506 288.972260,539.471375 
	C289.427185,540.243774 289.480408,541.713257 289.047455,542.477783 
	C283.919769,551.532288 278.670898,560.518188 273.417755,569.500977 
	C273.192566,569.886047 272.616455,570.065857 271.625366,570.669067 
	C259.360535,571.004578 247.674057,571.012329 235.987579,571.020020 
	C230.526932,561.731934 224.968201,552.498596 219.718521,543.092773 
	C218.987869,541.783691 219.182846,539.284851 219.963638,537.914978 
	C224.889465,529.272705 230.101639,520.793640 235.989151,512.114563 
	C246.922943,511.979736 257.087097,512.030518 267.250458,511.961029 
	C268.828308,511.950256 270.402374,511.389313 271.978210,511.082703 
z"/>
<path fill="#F2AD1C" opacity="1.000000" stroke="none" 
	d="
M294.994812,604.000366 
	C289.636139,595.151550 284.220734,586.335876 279.000458,577.406128 
	C278.435913,576.440552 278.589355,574.612854 279.117615,573.530518 
	C280.985504,569.703369 283.161011,566.026245 285.784790,561.960938 
	C286.527618,561.048523 286.705566,560.467590 286.883484,559.886597 
	C286.883484,559.886597 286.990295,559.977600 287.157104,559.815430 
	C287.328186,559.328796 287.332458,559.004395 287.336731,558.679993 
	C287.336731,558.679993 287.413818,558.560425 287.793610,558.530884 
	C288.713501,557.269836 289.253601,556.038269 289.793671,554.806702 
	C289.793671,554.806702 289.929993,554.961731 290.185120,554.802002 
	C290.744019,553.662720 291.047821,552.683167 291.351624,551.703613 
	C291.351624,551.703613 291.425354,551.589172 291.801758,551.550049 
	C292.735596,550.290283 293.293030,549.069702 293.850464,547.849121 
	C293.850494,547.849121 293.950867,547.965881 294.253845,547.790039 
	C296.554260,547.069336 298.542603,546.096375 300.550598,546.054016 
	C308.950409,545.876770 317.360016,545.836853 325.757324,546.065491 
	C328.251068,546.133423 330.716431,547.244019 333.194824,547.876770 
	C333.194824,547.876770 333.059601,547.955688 333.102386,548.260498 
	C334.845032,551.005493 336.544922,553.445679 338.244781,555.885864 
	C341.788910,561.433411 345.491699,566.890137 348.757080,572.597168 
	C349.502228,573.899414 349.335388,576.398682 348.567810,577.779968 
	C344.085144,585.846313 339.298828,593.743958 334.155457,601.723755 
	C333.393311,602.628845 333.090759,603.508789 332.788239,604.388672 
	C332.788239,604.388672 332.687134,604.564880 332.179962,604.525574 
	C329.695404,604.656677 327.719238,604.956787 325.740387,604.975769 
	C315.773315,605.071533 305.805542,605.093994 295.838013,605.142212 
	C295.838013,605.142212 295.988617,605.002869 295.953186,604.840210 
	C295.610077,604.451782 295.302429,604.226074 294.994812,604.000366 
z"/>
<path fill="#E5A11B" opacity="1.000000" stroke="none" 
	d="
M392.992767,467.109894 
	C395.370850,467.061920 397.748901,467.013947 400.662476,467.426483 
	C406.176666,468.225433 411.155396,468.563873 416.134125,468.902313 
	C416.134125,468.902313 416.038422,468.925110 416.223206,469.189270 
	C419.672821,470.574860 422.937714,471.696320 426.202606,472.817810 
	C426.202606,472.817780 426.104614,472.864471 426.182312,473.140442 
	C426.967651,473.836273 427.675232,474.256134 428.382812,474.675995 
	C428.382812,474.675995 428.139893,474.612152 428.173950,474.983124 
	C428.865326,475.862915 429.522644,476.371765 430.179932,476.880615 
	C430.179932,476.880615 430.075867,476.936920 430.060974,477.286774 
	C431.330170,481.417450 432.614258,485.198273 433.898376,488.979095 
	C433.942230,489.431885 433.986115,489.884644 433.596802,490.747620 
	C432.201294,494.531860 431.239044,497.905884 430.276794,501.279938 
	C430.276794,501.279938 430.253479,501.139313 429.985168,501.199524 
	C429.132172,501.825439 428.547516,502.391113 427.684692,503.101532 
	C427.005554,503.937927 426.604523,504.629608 426.203491,505.321289 
	C426.203461,505.321259 426.145203,505.207275 425.862000,505.163574 
	C424.721924,505.753235 423.864990,506.386566 423.008057,507.019867 
	C423.008057,507.019867 423.016174,506.984070 422.791626,507.242157 
	C423.186340,511.947388 426.734283,510.280823 429.276276,510.714172 
	C429.276276,510.714172 429.141296,510.750427 429.245483,511.016296 
	C429.957672,511.477997 430.565674,511.673859 431.173706,511.869720 
	C431.173706,511.869720 431.076538,511.899384 431.164734,512.177734 
	C432.883057,513.953003 434.513153,515.449951 436.143250,516.946838 
	C436.143250,516.946838 436.058929,516.951782 436.046417,517.319275 
	C436.685547,522.504395 438.051819,527.364136 437.770599,532.126709 
	C437.530579,536.191223 435.397675,540.143921 434.102112,544.146118 
	C434.102142,544.146118 434.074097,544.063354 433.856567,544.160767 
	C433.457428,544.570740 433.275848,544.883240 433.094238,545.195740 
	C433.094238,545.195740 433.075745,545.076111 432.869598,545.166199 
	C432.464905,545.557800 432.266357,545.859314 432.067810,546.160828 
	C432.067810,546.160828 432.053986,546.055908 431.850128,546.150330 
	C431.445770,546.535217 431.245300,546.825684 431.044800,547.116089 
	C431.044800,547.116089 431.035278,547.032593 430.683472,547.031860 
	C424.346985,548.680420 418.424805,551.401489 412.364655,551.754578 
	C399.970459,552.476562 387.502136,551.925903 375.045807,551.437378 
	C375.021973,526.385681 375.029968,501.795929 374.998230,477.206268 
	C374.992950,473.107391 374.037170,468.534119 380.453766,468.438019 
	C380.639618,468.435242 380.812714,467.579041 380.991730,467.120758 
	C383.370178,467.070099 385.748596,467.019409 388.627991,467.378113 
	C390.765381,469.548676 392.123230,469.721680 392.992767,467.109894 
M387.035919,480.119568 
	C387.035919,487.734680 387.035919,495.349792 387.035919,503.071808 
	C393.918945,503.071808 400.238098,503.316223 406.531799,503.020264 
	C419.132050,502.427765 423.754578,493.034271 416.724487,481.549927 
	C414.134766,480.361603 411.610870,478.364258 408.942169,478.147186 
	C402.685089,477.638336 396.357727,477.927948 390.061249,478.035461 
	C389.052460,478.052673 388.056152,478.799164 387.035919,480.119568 
M388.038788,541.041626 
	C396.150574,541.001526 404.267944,541.131836 412.372406,540.866882 
	C418.724731,540.659302 423.842316,536.594055 424.912323,531.506714 
	C426.280609,525.001282 424.170959,519.973145 418.272003,516.993774 
	C416.033295,515.863037 413.299591,515.712463 411.394409,514.951660 
	C411.554688,514.734924 411.727020,514.525024 411.860260,514.292786 
	C411.877258,514.263123 411.690521,514.035583 411.598389,514.035767 
	C403.899567,514.047302 396.200531,514.050842 388.502655,514.148132 
	C388.023987,514.154114 387.554688,514.904480 387.104248,515.683716 
	C387.104248,515.683716 386.929230,516.016479 386.351959,516.615540 
	C386.227753,522.387817 385.982239,528.161316 386.038330,533.931885 
	C386.061188,536.281250 386.738922,538.624329 388.038788,541.041626 
z"/>
<path fill="#FCFCFC" opacity="1.000000" stroke="none" 
	d="
M629.007568,515.138428 
	C624.201172,515.138306 619.892944,515.138306 615.128906,515.138306 
	C615.128906,527.576294 615.128906,539.817322 615.128906,552.290527 
	C610.255737,552.290527 605.838745,552.290527 601.208984,552.290527 
	C601.208984,523.892090 601.208984,495.649963 601.208984,467.200745 
	C605.787109,467.200745 610.192200,467.200745 614.982300,467.200745 
	C614.982300,479.119049 614.982300,490.865753 614.982300,502.804016 
	C629.120667,502.804016 642.875977,502.804016 656.989258,502.804016 
	C656.989258,491.010254 656.989258,479.277222 656.989258,467.271698 
	C661.734619,467.271698 666.131104,467.271698 670.766968,467.271698 
	C670.766968,495.725067 670.766968,524.125244 670.766968,552.750366 
	C666.356445,552.750366 662.086060,552.750366 657.328674,552.750366 
	C657.328674,540.383423 657.328674,527.987549 657.328674,515.138550 
	C647.737244,515.138550 638.621460,515.138550 629.007568,515.138428 
z"/>
<path fill="#FCFCFC" opacity="1.000000" stroke="none" 
	d="
M808.504883,550.647827 
	C795.979492,543.522888 789.419128,530.594360 791.040405,516.660339 
	C792.611206,503.160431 801.697510,492.719910 815.229126,488.866699 
	C834.215942,483.460114 851.900818,496.065948 852.972290,515.836792 
	C853.159607,519.292908 852.998840,522.767944 852.998840,526.568970 
	C836.734070,526.568970 820.637939,526.568970 804.191528,526.568970 
	C805.868225,534.059509 809.719238,539.084778 816.875122,541.094482 
	C826.205139,543.714722 834.517273,541.798523 841.875732,534.890808 
	C844.222412,537.801819 846.555786,540.696167 849.041382,543.779419 
	C836.855408,553.793518 823.705322,557.140503 808.504883,550.647827 
M813.558289,516.334961 
	C821.966309,516.334961 830.374329,516.334961 838.751343,516.334961 
	C839.335083,506.815308 833.460632,499.858063 824.697205,499.002594 
	C814.454407,498.002747 803.879883,507.851746 804.674255,516.334106 
	C807.296021,516.334106 809.938049,516.334106 813.558289,516.334961 
z"/>
<path fill="#E5A11B" opacity="1.000000" stroke="none" 
	d="
M467.016327,549.951294 
	C455.197266,543.745483 448.474274,530.572937 450.004272,516.618896 
	C451.444550,503.482697 460.566803,491.693298 473.310577,489.240448 
	C480.177490,487.918671 487.876129,488.713287 494.773102,490.349945 
	C502.214325,492.115784 506.726135,498.339600 509.498596,505.970154 
	C509.577911,508.586395 509.836212,510.605896 510.094482,512.625366 
	C510.540070,512.534241 510.985687,512.443115 511.431274,512.351990 
	C511.621918,513.013306 511.812592,513.674683 511.668671,514.981262 
	C511.105225,518.556152 510.876343,521.485779 510.602539,524.990234 
	C508.536102,524.990234 506.752289,524.990234 504.968475,524.990234 
	C492.978577,524.990295 480.988190,524.938293 468.999359,525.051147 
	C467.358093,525.066650 465.724518,525.903076 464.087402,526.359375 
	C464.267303,534.346191 471.212433,541.212463 479.740936,541.968933 
	C487.690308,542.673950 494.814087,540.954102 500.694427,534.917114 
	C502.834747,537.513000 504.822937,539.924377 506.657166,542.862305 
	C506.484802,544.063293 506.466370,544.737732 506.447937,545.412170 
	C506.447937,545.412170 506.372192,545.211487 506.021851,545.213928 
	C505.142426,545.857788 504.613312,546.499268 504.084167,547.140686 
	C504.084167,547.140686 504.048248,547.048706 503.734436,547.066040 
	C502.369354,547.868347 501.318085,548.653259 500.266785,549.438171 
	C500.266785,549.438171 500.171417,549.357849 499.835754,549.263916 
	C494.563080,550.660278 489.626068,552.150513 484.689026,553.640747 
	C483.660736,553.763916 482.632446,553.887024 481.208008,553.560791 
	C476.213318,552.058044 471.614838,551.004639 467.016327,549.951294 
M477.606537,499.834290 
	C469.503754,502.220856 465.192566,507.884399 463.421265,515.864014 
	C475.324097,515.864014 486.972992,515.864014 498.668976,515.864014 
	C496.876007,502.995392 490.194458,497.748077 477.606537,499.834290 
M495.770813,517.038025 
	C485.870575,517.038025 475.970337,517.038025 466.070099,517.038025 
	C466.072327,517.271118 466.074554,517.504150 466.076752,517.737244 
	C476.698212,517.737244 487.319672,517.737244 499.368561,517.737244 
	C497.494568,517.273743 497.029755,517.158752 495.770813,517.038025 
z"/>
<path fill="#E5A11B" opacity="1.000000" stroke="none" 
	d="
M535.603821,547.115356 
	C532.702759,543.840515 529.801636,540.565613 526.921631,536.523193 
	C523.222473,525.348083 522.807495,515.023376 527.674255,504.812042 
	C527.742981,504.667938 527.343018,504.300507 527.161804,504.037323 
	C531.914429,495.091400 539.542175,489.134003 549.296143,488.356720 
	C565.292236,487.082031 579.086060,491.254395 583.654114,509.915649 
	C583.385315,511.683319 583.233521,512.848755 583.466431,513.931458 
	C585.645447,524.058716 584.928284,524.985657 574.696472,524.990906 
	C573.864746,524.991333 573.032959,524.992554 572.201233,524.992554 
	C560.840332,524.992676 549.479492,524.992615 538.118591,524.992615 
	C538.113831,525.239502 538.109131,525.486389 538.104370,525.733337 
	C540.556702,525.914856 543.009033,526.096436 545.461365,526.278015 
	C542.502808,526.489746 539.544250,526.701538 536.584290,526.913391 
	C537.906067,541.465515 558.808655,548.340027 573.976196,534.914429 
	C576.267456,537.710327 578.554260,540.500854 581.091309,543.596741 
	C579.231628,545.008057 577.426208,546.378235 575.107178,547.596252 
	C573.751282,548.033142 572.908936,548.622192 572.066528,549.211182 
	C571.635986,549.497986 571.205444,549.784729 570.075195,550.049805 
	C565.158691,551.250549 560.941895,552.472900 556.725098,553.695312 
	C555.683044,553.792419 554.640930,553.889587 553.203003,553.541748 
	C549.581604,552.080444 546.367493,551.025391 543.125977,550.063049 
	C541.327332,549.528992 539.482849,549.149597 537.658997,548.700562 
	C537.658997,548.700562 537.600464,548.592102 537.569214,548.186035 
	C536.893311,547.558411 536.248535,547.336853 535.603821,547.115356 
M564.351074,516.248535 
	C566.746582,516.248535 569.142151,516.248535 571.609924,516.248535 
	C569.981384,504.457581 564.640991,499.066589 555.236267,499.066223 
	C545.681946,499.065857 537.938293,506.052094 536.470276,516.251709 
	C545.470154,516.251709 554.430298,516.251709 564.351074,516.248535 
M553.500000,518.008362 
	C558.901917,518.008362 564.303894,518.008362 569.705811,518.008362 
	C569.694885,517.777161 569.683960,517.545898 569.673035,517.314697 
	C558.823914,517.314697 547.974854,517.314697 537.125732,517.314697 
	C537.123901,517.545715 537.122131,517.776672 537.120300,518.007690 
	C542.247620,518.007690 547.375000,518.007690 553.500000,518.008362 
z"/>
<path fill="#FCFCFC" opacity="1.000000" stroke="none" 
	d="
M774.526245,488.640442 
	C778.456970,488.641388 781.951904,488.641388 785.866150,488.641388 
	C781.156921,500.167603 776.484436,511.656403 771.769226,523.127686 
	C768.209412,531.788208 764.450928,540.370728 761.085388,549.105347 
	C759.955811,552.036926 758.538025,553.087891 755.359497,553.040344 
	C745.741394,552.896423 745.733582,553.046997 742.167725,544.051575 
	C734.904236,525.728577 727.647400,507.402893 720.200195,488.604706 
	C724.460449,488.604706 728.686462,488.352142 732.846924,488.763336 
	C734.047180,488.881958 735.559692,490.720245 736.079529,492.092041 
	C741.490540,506.371124 746.726990,520.716370 752.018494,535.040771 
	C752.155762,535.412354 752.366150,535.756958 752.861877,536.761292 
	C757.718323,523.936584 762.352051,511.711365 766.975342,499.482178 
	C768.019714,496.719635 768.760986,493.796661 770.168457,491.237152 
	C770.837646,490.020355 772.744324,489.484039 774.526245,488.640442 
z"/>
<path fill="#FCFCFC" opacity="1.000000" stroke="none" 
	d="
M693.112915,508.000305 
	C693.112793,501.191345 693.112793,494.882294 693.112793,488.283752 
	C697.680054,488.283752 702.073547,488.283752 706.703491,488.283752 
	C706.703491,509.729889 706.703491,531.129700 706.703491,552.757385 
	C702.276123,552.757385 698.006714,552.757385 693.113037,552.757385 
	C693.113037,538.017822 693.113037,523.259033 693.112915,508.000305 
z"/>
<path fill="#FCFCFC" opacity="1.000000" stroke="none" 
	d="
M699.173218,460.996368 
	C705.224304,461.555084 708.924561,465.017822 709.004028,469.815979 
	C709.076660,474.197388 705.314697,478.378693 700.769714,478.968201 
	C696.882812,479.472351 691.984680,475.930603 691.052307,471.941742 
	C689.940002,467.183136 692.874695,463.021423 699.173218,460.996368 
z"/>
<path fill="#F2AD1C" opacity="1.000000" stroke="none" 
	d="
M380.543823,467.060486 
	C380.812714,467.579041 380.639618,468.435242 380.453766,468.438019 
	C374.037170,468.534119 374.992950,473.107391 374.998230,477.206268 
	C375.029968,501.795929 375.021973,526.385681 374.819794,551.565796 
	C374.409088,552.428406 374.205841,552.700745 374.002625,552.973083 
	C373.701477,552.478821 373.137512,551.985046 373.136749,551.490295 
	C373.094482,523.542908 373.099152,495.595490 373.099152,467.000183 
	C375.585388,467.000183 377.840637,467.000183 380.543823,467.060486 
z"/>
<path fill="#E5A11B" opacity="1.000000" stroke="none" 
	d="
M333.106689,547.507141 
	C330.716431,547.244019 328.251068,546.133423 325.757324,546.065491 
	C317.360016,545.836853 308.950409,545.876770 300.550598,546.054016 
	C298.542603,546.096375 296.554260,547.069336 294.187164,547.751587 
	C294.429657,544.899597 296.330292,544.152710 299.233795,544.199280 
	C308.818817,544.352966 318.411743,544.120117 327.991669,544.389343 
	C329.691711,544.437134 331.344177,546.178284 333.106689,547.507141 
z"/>
<path fill="#F4AF1D" opacity="1.000000" stroke="none" 
	d="
M545.751892,526.374756 
	C543.009033,526.096436 540.556702,525.914856 538.104370,525.733337 
	C538.109131,525.486389 538.113831,525.239502 538.118591,524.992615 
	C549.479492,524.992615 560.840332,524.992676 572.201233,524.992554 
	C573.032959,524.992554 573.864746,524.991333 574.696472,524.990906 
	C584.928284,524.985657 585.645447,524.058716 583.466431,513.931458 
	C583.233521,512.848755 583.385315,511.683319 583.631836,510.290588 
	C584.357361,515.125854 584.809692,520.226868 584.613281,525.645447 
	C576.789856,526.013611 569.615173,526.064209 562.440430,526.114807 
	C559.736389,526.228149 557.032349,526.341492 553.436890,526.245239 
	C551.173706,526.069885 549.802002,526.104126 548.430298,526.138367 
	C547.634338,526.249451 546.838379,526.360474 545.751892,526.374756 
z"/>
<path fill="#F4AF1D" opacity="1.000000" stroke="none" 
	d="
M295.973846,605.514771 
	C305.805542,605.093994 315.773315,605.071533 325.740387,604.975769 
	C327.719238,604.956787 329.695404,604.656677 332.115967,604.604431 
	C331.332977,605.321777 330.114105,606.423279 328.879578,606.441101 
	C318.384827,606.593018 307.887177,606.555664 297.390533,606.532898 
	C296.963104,606.531982 296.536621,606.112061 295.973846,605.514771 
z"/>
<path fill="#F4AF1D" opacity="1.000000" stroke="none" 
	d="
M374.464111,553.059814 
	C374.205841,552.700745 374.409088,552.428406 374.838318,552.027771 
	C387.502136,551.925903 399.970459,552.476562 412.364655,551.754578 
	C418.424805,551.401489 424.346985,548.680420 430.720673,547.051270 
	C425.304230,549.063538 419.590607,552.363586 413.674408,552.779053 
	C400.812988,553.682312 387.848175,553.113586 374.464111,553.059814 
z"/>
<path fill="#F4AF1D" opacity="1.000000" stroke="none" 
	d="
M464.389069,526.406128 
	C465.724518,525.903076 467.358093,525.066650 468.999359,525.051147 
	C480.988190,524.938293 492.978577,524.990295 504.968475,524.990234 
	C506.752289,524.990234 508.536102,524.990234 510.602539,524.990234 
	C510.876343,521.485779 511.105225,518.556152 511.611633,515.328613 
	C511.983337,518.622925 512.077515,522.215027 511.358765,525.923706 
	C509.509918,526.074158 508.474030,526.108093 507.438171,526.141968 
	C506.344666,526.237610 505.251129,526.333130 503.349152,526.229797 
	C500.508636,526.062683 498.476593,526.094421 496.444550,526.126099 
	C491.753113,526.226868 487.061646,526.327576 481.451965,526.229431 
	C475.831818,526.060486 471.129913,526.090393 466.428009,526.120239 
	C465.848907,526.231140 465.269806,526.341980 464.389069,526.406128 
z"/>
<path fill="#F4AF1D" opacity="1.000000" stroke="none" 
	d="
M434.406067,543.982910 
	C435.397675,540.143921 437.530579,536.191223 437.770599,532.126709 
	C438.051819,527.364136 436.685547,522.504395 436.059570,517.279175 
	C441.679810,525.262634 441.212494,534.419739 434.406067,543.982910 
z"/>
<path fill="#F4AF1D" opacity="1.000000" stroke="none" 
	d="
M526.965576,504.340088 
	C527.343018,504.300507 527.742981,504.667938 527.674255,504.812042 
	C522.807495,515.023376 523.222473,525.348083 526.915833,536.194702 
	C521.147766,525.991394 521.338928,515.326904 526.965576,504.340088 
z"/>
<path fill="#F4AF1D" opacity="1.000000" stroke="none" 
	d="
M332.416626,478.443756 
	C324.486542,478.569000 316.371674,478.251923 308.254425,478.018829 
	C304.431274,477.909058 300.603516,477.960663 296.297668,477.881958 
	C297.183746,477.530487 298.547974,476.992584 299.916595,476.981171 
	C309.195435,476.903564 318.475677,476.888367 327.754150,476.984100 
	C329.249847,476.999512 330.738831,477.668793 332.416626,478.443756 
z"/>
<path fill="#F4AF1D" opacity="1.000000" stroke="none" 
	d="
M236.155319,571.432556 
	C247.674057,571.012329 259.360535,571.004578 271.514404,570.997314 
	C271.574585,571.395508 271.165771,572.142029 270.760406,572.140198 
	C259.281067,572.088013 247.802094,571.960388 236.155319,571.432556 
z"/>
<path fill="#F4AF1D" opacity="1.000000" stroke="none" 
	d="
M271.553345,510.871674 
	C270.402374,511.389313 268.828308,511.950256 267.250458,511.961029 
	C257.087097,512.030518 246.922943,511.979736 236.277954,511.941589 
	C237.260925,511.475861 238.721756,510.669861 240.189560,510.657013 
	C250.501724,510.566620 260.815338,510.639740 271.553345,510.871674 
z"/>
<path fill="#F2AD1C" opacity="1.000000" stroke="none" 
	d="
M415.916748,468.569458 
	C411.155396,468.563873 406.176666,468.225433 401.102936,467.498627 
	C405.905090,467.485718 410.802246,467.861176 415.916748,468.569458 
z"/>
<path fill="#F4AF1D" opacity="1.000000" stroke="none" 
	d="
M537.889099,548.922363 
	C539.482849,549.149597 541.327332,549.528992 543.125977,550.063049 
	C546.367493,551.025391 549.581604,552.080444 552.895386,553.458130 
	C552.520691,553.839539 552.057739,553.859680 551.063660,553.563660 
	C549.986572,553.182556 549.440674,553.117554 548.894714,553.052490 
	C545.302917,551.749695 541.711060,550.446899 537.889099,548.922363 
z"/>
<path fill="#F4AF1D" opacity="1.000000" stroke="none" 
	d="
M467.310059,550.148865 
	C471.614838,551.004639 476.213318,552.058044 480.899109,553.481384 
	C480.537231,553.875854 480.088135,553.900330 479.233978,553.697876 
	C478.532043,553.249756 478.268402,553.291565 478.038055,553.596497 
	C474.559967,552.513184 471.081879,551.429810 467.310059,550.148865 
z"/>
<path fill="#F4AF1D" opacity="1.000000" stroke="none" 
	d="
M484.966370,553.756470 
	C489.626068,552.150513 494.563080,550.660278 499.897797,549.257812 
	C496.420959,550.733826 492.546448,552.122009 488.044891,553.383545 
	C487.075409,553.369385 486.732910,553.481873 486.390442,553.594360 
	C486.008209,553.686951 485.625977,553.779602 484.966370,553.756470 
z"/>
<path fill="#E5A11B" opacity="1.000000" stroke="none" 
	d="
M562.849609,526.313721 
	C569.615173,526.064209 576.789856,526.013611 584.424683,525.975525 
	C577.676147,526.162903 570.467529,526.337769 562.849609,526.313721 
z"/>
<path fill="#F2AD1C" opacity="1.000000" stroke="none" 
	d="
M433.957031,488.570770 
	C432.614258,485.198273 431.330170,481.417450 430.086182,477.233276 
	C431.422760,480.607422 432.719208,484.384918 433.957031,488.570770 
z"/>
<path fill="#F4AF1D" opacity="1.000000" stroke="none" 
	d="
M557.110474,553.783386 
	C560.941895,552.472900 565.158691,551.250549 569.786560,550.047852 
	C567.739807,551.066589 565.282043,552.065552 562.051636,553.054199 
	C561.023987,553.085876 560.768860,553.127930 560.513733,553.170044 
	C559.507751,553.403870 558.501831,553.637634 557.110474,553.783386 
z"/>
<path fill="#F2AD1C" opacity="1.000000" stroke="none" 
	d="
M430.566895,501.076721 
	C431.239044,497.905884 432.201294,494.531860 433.525360,491.082947 
	C432.877106,494.296539 431.867035,497.585022 430.566895,501.076721 
z"/>
<path fill="#F2AD1C" opacity="1.000000" stroke="none" 
	d="
M426.030151,472.519897 
	C422.937714,471.696320 419.672821,470.574860 416.223969,469.140076 
	C419.312561,469.958496 422.585144,471.090240 426.030151,472.519897 
z"/>
<path fill="#E5A11B" opacity="1.000000" stroke="none" 
	d="
M466.828369,526.331543 
	C471.129913,526.090393 475.831818,526.060486 481.045685,526.073486 
	C476.781342,526.258545 472.005066,526.400635 466.828369,526.331543 
z"/>
<path fill="#E5A11B" opacity="1.000000" stroke="none" 
	d="
M338.156433,555.546936 
	C336.544922,553.445679 334.845032,551.005493 333.151855,548.199829 
	C334.795074,550.292236 336.431580,552.750122 338.156433,555.546936 
z"/>
<path fill="#F4AF1D" opacity="1.000000" stroke="none" 
	d="
M429.067657,510.435303 
	C426.734283,510.280823 423.186340,511.947388 422.807556,507.251190 
	C424.985077,508.053558 426.922058,509.104980 429.067657,510.435303 
z"/>
<path fill="#F4AF1D" opacity="1.000000" stroke="none" 
	d="
M511.398712,511.994354 
	C510.985687,512.443115 510.540070,512.534241 510.094482,512.625366 
	C509.836212,510.605896 509.577911,508.586395 509.556519,506.312744 
	C510.317657,507.917938 510.841919,509.777344 511.398712,511.994354 
z"/>
<path fill="#F4AF1D" opacity="1.000000" stroke="none" 
	d="
M436.043457,516.624695 
	C434.513153,515.449951 432.883057,513.953003 431.168579,512.127075 
	C432.704010,513.299561 434.323822,514.801025 436.043457,516.624695 
z"/>
<path fill="#F2AD1C" opacity="1.000000" stroke="none" 
	d="
M392.596924,467.049835 
	C392.123230,469.721680 390.765381,469.548676 389.068481,467.450989 
	C390.072357,467.072968 391.136749,467.031372 392.596924,467.049835 
z"/>
<path fill="#E5A11B" opacity="1.000000" stroke="none" 
	d="
M496.808350,526.314453 
	C498.476593,526.094421 500.508636,526.062683 503.050415,526.077393 
	C501.430817,526.250183 499.301483,526.376465 496.808350,526.314453 
z"/>
<path fill="#E5A11B" opacity="1.000000" stroke="none" 
	d="
M289.518616,554.965210 
	C289.253601,556.038269 288.713501,557.269836 287.822968,558.466187 
	C288.062866,557.328491 288.653198,556.226135 289.518616,554.965210 
z"/>
<path fill="#F4AF1D" opacity="1.000000" stroke="none" 
	d="
M500.586670,549.351990 
	C501.318085,548.653259 502.369354,547.868347 503.779541,547.086060 
	C503.061157,547.814392 501.983826,548.540100 500.586670,549.351990 
z"/>
<path fill="#F4AF1D" opacity="1.000000" stroke="none" 
	d="
M572.384766,549.134399 
	C572.908936,548.622192 573.751282,548.033142 574.778381,547.675415 
	C574.209778,548.290344 573.456421,548.673950 572.384766,549.134399 
z"/>
<path fill="#E5A11B" opacity="1.000000" stroke="none" 
	d="
M293.567322,547.996826 
	C293.293030,549.069702 292.735596,550.290283 291.828522,551.487427 
	C292.080688,550.357483 292.682465,549.250977 293.567322,547.996826 
z"/>
<path fill="#F4AF1D" opacity="1.000000" stroke="none" 
	d="
M506.724976,545.304077 
	C506.466370,544.737732 506.484802,544.063293 506.785767,543.176270 
	C507.046173,543.707825 507.024078,544.451965 506.724976,545.304077 
z"/>
<path fill="#F2AD1C" opacity="1.000000" stroke="none" 
	d="
M430.087708,476.598633 
	C429.522644,476.371765 428.865326,475.862915 428.299042,474.994446 
	C428.925232,475.195374 429.460358,475.756012 430.087708,476.598633 
z"/>
<path fill="#E5A11B" opacity="1.000000" stroke="none" 
	d="
M291.165039,551.932617 
	C291.047821,552.683167 290.744019,553.662720 290.100708,554.742554 
	C290.166992,553.949097 290.572754,553.055298 291.165039,551.932617 
z"/>
<path fill="#F4AF1D" opacity="1.000000" stroke="none" 
	d="
M504.369751,547.059509 
	C504.613312,546.499268 505.142426,545.857788 506.027893,545.321045 
	C505.807922,545.943237 505.231598,546.460754 504.369751,547.059509 
z"/>
<path fill="#E5A11B" opacity="1.000000" stroke="none" 
	d="
M548.764648,526.329041 
	C549.802002,526.104126 551.173706,526.069885 553.060059,526.086792 
	C552.082825,526.265198 550.590942,526.392456 548.764648,526.329041 
z"/>
<path fill="#F4AF1D" opacity="1.000000" stroke="none" 
	d="
M423.337250,507.021301 
	C423.864990,506.386566 424.721924,505.753235 425.922058,505.185730 
	C425.399048,505.841949 424.532745,506.432343 423.337250,507.021301 
z"/>
<path fill="#F4AF1D" opacity="1.000000" stroke="none" 
	d="
M332.964294,604.191956 
	C333.090759,603.508789 333.393311,602.628845 333.878693,601.927979 
	C333.754517,602.736389 333.447449,603.365845 332.964294,604.191956 
z"/>
<path fill="#F2AD1C" opacity="1.000000" stroke="none" 
	d="
M427.962830,502.956818 
	C428.547516,502.391113 429.132172,501.825439 430.035736,501.249756 
	C429.775146,502.105774 429.195648,502.971771 428.305786,503.667755 
	C427.984589,503.317444 427.973724,503.137146 427.962830,502.956818 
z"/>
<path fill="#F4AF1D" opacity="1.000000" stroke="none" 
	d="
M427.684692,503.101532 
	C427.973724,503.137146 427.984589,503.317444 428.004486,503.768585 
	C427.595459,504.413635 427.177399,504.787872 426.481445,505.241699 
	C426.604523,504.629608 427.005554,503.937927 427.684692,503.101532 
z"/>
<path fill="#F2AD1C" opacity="1.000000" stroke="none" 
	d="
M428.252869,474.399475 
	C427.675232,474.256134 426.967651,473.836273 426.195129,473.087708 
	C426.794434,473.213654 427.458679,473.668304 428.252869,474.399475 
z"/>
<path fill="#E5A11B" opacity="1.000000" stroke="none" 
	d="
M507.758789,526.324463 
	C508.474030,526.108093 509.509918,526.074158 511.059998,526.093384 
	C510.409271,526.266663 509.244324,526.386780 507.758789,526.324463 
z"/>
<path fill="#F4AF1D" opacity="1.000000" stroke="none" 
	d="
M535.767090,547.377258 
	C536.248535,547.336853 536.893311,547.558411 537.522705,548.145569 
	C536.981750,548.220581 536.455994,547.929871 535.767090,547.377258 
z"/>
<path fill="#E5A11B" opacity="1.000000" stroke="none" 
	d="
M549.114380,553.222778 
	C549.440674,553.117554 549.986572,553.182556 550.737305,553.437805 
	C550.406067,553.549683 549.870056,553.471375 549.114380,553.222778 
z"/>
<path fill="#E5A11B" opacity="1.000000" stroke="none" 
	d="
M286.623535,560.045288 
	C286.705566,560.467590 286.527618,561.048523 286.067688,561.771851 
	C285.978333,561.344116 286.170959,560.774048 286.623535,560.045288 
z"/>
<path fill="#F4AF1D" opacity="1.000000" stroke="none" 
	d="
M295.545288,477.971008 
	C295.596832,478.433838 295.370636,479.056946 294.804626,479.779755 
	C294.732391,479.296753 294.999969,478.714020 295.545288,477.971008 
z"/>
<path fill="#F4AF1D" opacity="1.000000" stroke="none" 
	d="
M295.014587,604.265503 
	C295.302429,604.226074 295.610077,604.451782 295.884705,604.916443 
	C295.579224,604.947144 295.306824,604.738831 295.014587,604.265503 
z"/>
<path fill="#F4AF1D" opacity="1.000000" stroke="none" 
	d="
M431.028198,511.596893 
	C430.565674,511.673859 429.957672,511.477997 429.268005,510.950134 
	C429.751831,510.853485 430.317261,511.088776 431.028198,511.596893 
z"/>
<path fill="#F4AF1D" opacity="1.000000" stroke="none" 
	d="
M431.304596,547.034058 
	C431.245300,546.825684 431.445770,546.535217 431.902832,546.155029 
	C431.961029,546.360840 431.762695,546.656372 431.304596,547.034058 
z"/>
<path fill="#F4AF1D" opacity="1.000000" stroke="none" 
	d="
M432.325256,546.064514 
	C432.266357,545.859314 432.464905,545.557800 432.929749,545.172852 
	C432.991608,545.382385 432.787170,545.675293 432.325256,546.064514 
z"/>
<path fill="#E5A11B" opacity="1.000000" stroke="none" 
	d="
M478.261322,553.718994 
	C478.268402,553.291565 478.532043,553.249756 478.906891,553.608459 
	C478.818085,553.777710 478.651337,553.809570 478.261322,553.718994 
z"/>
<path fill="#E5A11B" opacity="1.000000" stroke="none" 
	d="
M486.638458,553.715210 
	C486.732910,553.481873 487.075409,553.369385 487.666626,553.385071 
	C487.572388,553.620850 487.229431,553.728455 486.638458,553.715210 
z"/>
<path fill="#F4AF1D" opacity="1.000000" stroke="none" 
	d="
M433.350006,545.093079 
	C433.275848,544.883240 433.457428,544.570740 433.900299,544.161011 
	C433.976318,544.372681 433.791046,544.681580 433.350006,545.093079 
z"/>
<path fill="#E5A11B" opacity="1.000000" stroke="none" 
	d="
M560.698120,553.286987 
	C560.768860,553.127930 561.023987,553.085876 561.666748,553.036682 
	C561.663818,553.154297 561.273193,553.279114 560.698120,553.286987 
z"/>
<path fill="#E5A11B" opacity="1.000000" stroke="none" 
	d="
M287.183075,558.849487 
	C287.332458,559.004395 287.328186,559.328796 287.094208,559.784424 
	C286.863434,559.606445 286.918427,559.307617 287.183075,558.849487 
z"/>
<path fill="#000000" opacity="1.000000" stroke="none" 
	d="
M410.791473,515.115173 
	C413.299591,515.712463 416.033295,515.863037 418.272003,516.993774 
	C424.170959,519.973145 426.280609,525.001282 424.912323,531.506714 
	C423.842316,536.594055 418.724731,540.659302 412.372406,540.866882 
	C404.267944,541.131836 396.150574,541.001526 387.546783,540.540283 
	C387.012939,532.031433 386.971069,524.023987 386.929230,516.016479 
	C386.929230,516.016479 387.104248,515.683716 387.551514,515.428467 
	C395.596344,515.153931 403.193909,515.134521 410.791473,515.115173 
z"/>
<path fill="#000000" opacity="1.000000" stroke="none" 
	d="
M416.919586,482.267639 
	C423.754578,493.034271 419.132050,502.427765 406.531799,503.020264 
	C400.238098,503.316223 393.918945,503.071808 387.035919,503.071808 
	C387.035919,495.349792 387.035919,487.734680 387.506287,479.601013 
	C392.088165,479.075836 396.200928,479.130829 400.310913,479.047913 
	C406.088165,478.931396 411.840698,478.829987 416.919586,482.267639 
z"/>
<path fill="#F4AF1D" opacity="1.000000" stroke="none" 
	d="
M416.822021,481.908783 
	C411.840698,478.829987 406.088165,478.931396 400.310913,479.047913 
	C396.200928,479.130829 392.088165,479.075836 387.515381,479.145508 
	C388.056152,478.799164 389.052460,478.052673 390.061249,478.035461 
	C396.357727,477.927948 402.685089,477.638336 408.942169,478.147186 
	C411.610870,478.364258 414.134766,480.361603 416.822021,481.908783 
z"/>
<path fill="#F4AF1D" opacity="1.000000" stroke="none" 
	d="
M411.092957,515.033447 
	C403.193909,515.134521 395.596344,515.153931 387.539917,515.240906 
	C387.554688,514.904480 388.023987,514.154114 388.502655,514.148132 
	C396.200531,514.050842 403.899567,514.047302 411.598389,514.035767 
	C411.690521,514.035583 411.877258,514.263123 411.860260,514.292786 
	C411.727020,514.525024 411.554688,514.734924 411.092957,515.033447 
z"/>
<path fill="#F4AF1D" opacity="1.000000" stroke="none" 
	d="
M386.640594,516.316040 
	C386.971069,524.023987 387.012939,532.031433 387.086731,540.504639 
	C386.738922,538.624329 386.061188,536.281250 386.038330,533.931885 
	C385.982239,528.161316 386.227753,522.387817 386.640594,516.316040 
z"/>
<path fill="#000000" opacity="1.000000" stroke="none" 
	d="
M813.069153,516.334534 
	C809.938049,516.334106 807.296021,516.334106 804.674255,516.334106 
	C803.879883,507.851746 814.454407,498.002747 824.697205,499.002594 
	C833.460632,499.858063 839.335083,506.815308 838.751343,516.334961 
	C830.374329,516.334961 821.966309,516.334961 813.069153,516.334534 
z"/>
<path fill="#000000" opacity="1.000000" stroke="none" 
	d="
M477.989258,499.691284 
	C490.194458,497.748077 496.876007,502.995392 498.668976,515.864014 
	C486.972992,515.864014 475.324097,515.864014 463.421265,515.864014 
	C465.192566,507.884399 469.503754,502.220856 477.989258,499.691284 
z"/>
<path fill="#F4AF1D" opacity="1.000000" stroke="none" 
	d="
M496.167908,517.040894 
	C497.029755,517.158752 497.494568,517.273743 499.368561,517.737244 
	C487.319672,517.737244 476.698212,517.737244 466.076752,517.737244 
	C466.074554,517.504150 466.072327,517.271118 466.070099,517.038025 
	C475.970337,517.038025 485.870575,517.038025 496.167908,517.040894 
z"/>
<path fill="#000000" opacity="1.000000" stroke="none" 
	d="
M563.870728,516.250122 
	C554.430298,516.251709 545.470154,516.251709 536.470276,516.251709 
	C537.938293,506.052094 545.681946,499.065857 555.236267,499.066223 
	C564.640991,499.066589 569.981384,504.457581 571.609924,516.248535 
	C569.142151,516.248535 566.746582,516.248535 563.870728,516.250122 
z"/>
<path fill="#F4AF1D" opacity="1.000000" stroke="none" 
	d="
M553.001160,518.008057 
	C547.375000,518.007690 542.247620,518.007690 537.120300,518.007690 
	C537.122131,517.776672 537.123901,517.545715 537.125732,517.314697 
	C547.974854,517.314697 558.823914,517.314697 569.673035,517.314697 
	C569.683960,517.545898 569.694885,517.777161 569.705811,518.008362 
	C564.303894,518.008362 558.901917,518.008362 553.001160,518.008057 
z"/>
</svg>